<?xml version="1.0" standalone="no"?>
<!DOCTYPE svg PUBLIC "-//W3C//DTD SVG 20010904//EN"
 "http://www.w3.org/TR/2001/REC-SVG-20010904/DTD/svg10.dtd">
<svg version="1.0" xmlns="http://www.w3.org/2000/svg"
 width="1280.000000pt" height="1280.000000pt" viewBox="0 0 1280.000000 1280.000000"
 preserveAspectRatio="xMidYMid meet">

<g transform="translate(0.000000,1280.000000) scale(0.100000,-0.100000)"
fill="#000000" stroke="none">
<path d="M0 6400 l0 -6400 6400 0 6400 0 0 6400 0 6400 -6400 0 -6400 0 0
-6400z m5988 1049 c145 -85 207 -121 537 -312 66 -39 156 -91 200 -116 l80
-46 3 -571 c2 -450 -1 -574 -10 -582 -7 -5 -49 -30 -93 -55 -44 -24 -177 -100
-295 -169 -463 -268 -546 -316 -567 -327 l-23 -12 0 1141 c0 627 2 1140 6
1140 3 0 76 -41 162 -91z"/>
</g>
</svg>
