<?xml version="1.0" encoding="utf-8"?>
<!-- Generator: Adobe Illustrator 22.0.1, SVG Export Plug-In . SVG Version: 6.00 Build 0)  -->
<svg version="1.1" id="Layer_1" xmlns="http://www.w3.org/2000/svg" xmlns:xlink="http://www.w3.org/1999/xlink" x="0px" y="0px"
	 viewBox="0 0 1400 1000" style="enable-background:new 0 0 1400 1000;" xml:space="preserve">
<style type="text/css">
	.st0{fill:#E9F5FF;}
	.st1{fill:#63A2E0;}
	.st2{fill:#213D4F;}
	.st3{fill:#0E222D;}
	.st4{opacity:0.74;fill:#B0C1DF;}
	.st5{fill:#87B9F4;}
	.st6{fill:#CDE5F9;}
	.st7{fill:#B0C1DF;}
	.st8{fill:#E1EFF9;}
	.st9{fill:#789CD1;}
	.st10{fill:#8DAAD3;}
	.st11{fill:#5480B5;}
	.st12{fill:#122835;}
	.st13{fill:#0F2633;}
</style>
<rect class="st0" width="1400" height="1000"/>
<g>
	<g>
		<g>
			<rect x="1043.4" y="365.4" class="st1" width="36" height="80.4"/>
			<rect x="1116.5" y="342.2" class="st2" width="36" height="103.7"/>
			<rect x="1190.7" y="305.2" class="st1" width="36" height="140.6"/>
			<rect x="1260.9" y="264.5" class="st2" width="36" height="181.4"/>
		</g>
		<polygon class="st2" points="1283.6,213.8 1238.9,212 1245.2,226.2 1135.5,274.5 1120.3,243.3 1035.4,283.2 1038.3,289.5 
			1117.1,252.5 1132.2,283.5 1248,232.5 1254.9,248.2 		"/>
	</g>
	<g>
		<path class="st2" d="M958,835.1H460.1c-8.6,0-15.6-7-15.6-15.6V479.1c0-8.6,7-15.6,15.6-15.6H958c8.6,0,15.6,7,15.6,15.6v340.4
			C973.6,828.2,966.6,835.1,958,835.1z"/>
		<path class="st3" d="M444.5,786.7v32.9c0,8.6,7,15.6,15.6,15.6H958c8.6,0,15.6-7,15.6-15.6v-32.9H444.5z"/>
		<rect x="479.4" y="786.7" class="st4" width="459.3" height="48.5"/>
		
			<rect x="538.8" y="435.6" transform="matrix(-1.836970e-16 1 -1 -1.836970e-16 1374.3136 -43.8022)" class="st5" width="340.4" height="459.3"/>
		<rect x="479.4" y="786.7" class="st1" width="459.3" height="48.8"/>
		<polygon class="st1" points="938.7,557.1 876.6,495 869.5,495 604.8,672.6 767.7,835.5 938.7,835.5 		"/>
		<g>
			<circle class="st6" cx="702.7" cy="531.3" r="172.9"/>
			<circle class="st7" cx="702.7" cy="531.3" r="141.7"/>
			<path class="st8" d="M568.9,531.3c0-76.9,61.3-139.5,137.7-141.6c-1.3,0-2.6-0.1-4-0.1c-78.2,0-141.7,63.4-141.7,141.7
				S624.5,673,702.7,673c1.3,0,2.6,0,4-0.1C630.3,670.9,568.9,608.3,568.9,531.3z"/>
			<path class="st9" d="M702.7,389.7c-4,0-8,0.2-11.9,0.5c72.7,6,129.8,66.9,129.8,141.2s-57.1,135.1-129.8,141.2
				c3.9,0.3,7.9,0.5,11.9,0.5c78.2,0,141.7-63.4,141.7-141.7S781,389.7,702.7,389.7z"/>
			<g>
				<polygon class="st7" points="765.1,533.2 700.3,431.6 635.5,533.2 				"/>
				<polygon class="st7" points="635.5,533.2 700.3,634.8 765.1,533.2 				"/>
				<polygon class="st6" points="639.3,533.2 639.2,533.2 639.2,533.2 639.2,533.2 639.3,533.2 702.2,434.5 700.3,431.6 
					635.6,533.2 635.5,533.2 635.5,533.2 635.5,533.2 635.6,533.2 700.3,634.8 702.2,631.9 				"/>
				<polygon class="st10" points="700.4,431.7 700.4,533.2 765.1,533.2 				"/>
				<polygon class="st10" points="700.4,533.2 700.4,634.7 765.1,533.2 				"/>
				<polygon class="st8" points="700.3,567.6 635.9,533.2 700.3,576.2 764.3,533.2 				"/>
				<polygon class="st11" points="764.3,533.2 700.3,506.4 635.9,533.2 700.3,567.6 				"/>
			</g>
		</g>
		<path class="st2" d="M795.3,826l-5.7,9.5H626.5l-4-7.9c-4.5-8.9-13.7-14.6-23.7-14.6H398.8v23.4c0,24.4,22.3,44.2,49.8,44.2h520.9
			c27.5,0,49.8-19.8,49.8-44.2v-23.4H818.2C808.8,813.1,800.1,818,795.3,826z"/>
		<path class="st5" d="M887.9,246.4c-8.1-0.4-17.3,0.4-27.7,2.5c6.5-61.6-45.8-96.2-99.2-78.5c-15.7-30.6-47.6-51.5-84.3-51.4
			c-39.7,0.1-73.6,24.8-87.3,59.6c-40.1-12.4-94,32-82.6,70.2c-18.4-4.5-33.4-2-45.2,4.9c-34.9,20.4-19.6,74.2,20.9,74.1l179.1-0.7
			l-0.2-41l-26.7,0.1l56.9-63.7l57.4,63.3l-26.7,0.1l0.2,41l163.2-0.6C937.2,326.1,939.4,248.8,887.9,246.4z"/>
	</g>
	<g>
		<path class="st1" d="M1211.9,622.7c-18.2-18.2-43.3-29.4-71-29.4c-27.7,0-52.8,11.2-71,29.4c-18.2,18.2-29.4,43.3-29.4,71h100.4
			v100.4c27.7,0,52.8-11.2,71-29.4c18.2-18.2,29.4-43.3,29.4-71C1241.3,666,1230.1,640.9,1211.9,622.7z"/>
		<path class="st2" d="M1054.6,707.8c0,19.9,8.1,38,21.1,51c13.1,13.1,31.1,21.1,51,21.1v-72.2H1054.6z"/>
	</g>
	<g>
		<path class="st2" d="M204,263.2v96.5c0,25.7,20.8,46.5,46.5,46.5h94c22.2,0,40.1-18,40.1-40.1V263.2c0-6.4-5.2-11.6-11.6-11.6
			H215.6C209.2,251.6,204,256.8,204,263.2z M308,338.3v30.6c0,7.6-6.1,13.7-13.7,13.7s-13.7-6.1-13.7-13.7v-30.6
			c-9.9-5.1-16.5-15.7-16-27.7c0.7-15.5,13.4-28,28.8-28.4c16.8-0.5,30.7,13,30.7,29.7C324,323.4,317.5,333.4,308,338.3z"/>
		<path class="st2" d="M310.7,172.7h-38.8c-20.4,0-36.9,16.5-36.9,36.9v42.1h12.3v-42.1c0-13.6,11-24.6,24.6-24.6h38.8
			c13.6,0,24.6,11,24.6,24.6v42.1h12.3v-42.1C347.6,189.2,331.1,172.7,310.7,172.7z"/>
		<rect x="235" y="236" class="st12" width="12.3" height="15.7"/>
		<rect x="335.4" y="236" class="st12" width="12.3" height="15.7"/>
	</g>
	<g>
		<g>
			<circle class="st6" cx="266.9" cy="596.4" r="87.7"/>
			<circle class="st7" cx="266.9" cy="596.4" r="71.9"/>
			<path class="st8" d="M199,596.4c0-39,31.1-70.8,69.9-71.8c-0.7,0-1.3,0-2,0c-39.7,0-71.9,32.2-71.9,71.9
				c0,39.7,32.2,71.9,71.9,71.9c0.7,0,1.3,0,2,0C230.1,667.2,199,635.5,199,596.4z"/>
			<path class="st9" d="M266.9,524.6c-2,0-4,0.1-6,0.3c36.9,3.1,65.8,34,65.8,71.6c0,37.7-29,68.6-65.8,71.6c2,0.2,4,0.3,6,0.3
				c39.7,0,71.9-32.2,71.9-71.9C338.8,556.7,306.6,524.6,266.9,524.6z"/>
			<g>
				<polygon class="st7" points="298.6,597.4 265.7,545.8 232.8,597.4 				"/>
				<polygon class="st7" points="232.8,597.4 265.7,648.9 298.6,597.4 				"/>
				<polygon class="st6" points="234.7,597.4 234.7,597.4 234.7,597.4 234.7,597.4 234.7,597.4 266.6,547.3 265.7,545.8 
					232.8,597.4 232.8,597.4 232.8,597.4 232.8,597.4 232.8,597.4 265.7,648.9 266.6,647.4 				"/>
				<polygon class="st10" points="265.7,545.9 265.7,597.4 298.6,597.4 				"/>
				<polygon class="st10" points="265.7,597.4 265.7,648.9 298.6,597.4 				"/>
				<polygon class="st8" points="265.7,614.9 233,597.4 265.7,619.2 298.1,597.4 				"/>
				<polygon class="st11" points="298.1,597.4 265.7,583.8 233,597.4 265.7,614.9 				"/>
			</g>
		</g>
		<path class="st2" d="M355.9,639.9H184.7c-13.1,0-23.8,10.7-23.8,23.8v104.4c0,13.1,10.7,23.8,23.8,23.8h171.2
			c13.1,0,23.8-10.7,23.8-23.8V663.7C379.6,650.6,369,639.9,355.9,639.9z"/>
		<path class="st13" d="M368.2,643.4C367.2,711.2,296.8,766,210,766c-17.2,0-33.7-2.2-49.1-6.1v8.2c0,13.1,10.7,23.8,23.8,23.8
			h171.2c13.1,0,23.8-10.7,23.8-23.8V663.7C379.6,655.1,375.1,647.5,368.2,643.4z"/>
		<g>
			<path class="st7" d="M380.1,692.4h-38.5c-12.7,0-22.9,10.3-22.9,22.9l0,0c0,12.7,10.3,22.9,22.9,22.9h38.5
				c12.7,0,22.9-10.3,22.9-22.9l0,0C403.1,702.6,392.8,692.4,380.1,692.4z"/>
			<path class="st9" d="M380.1,727.1h-38.5c-10.8,0-19.8-7.4-22.3-17.4c-0.4,1.8-0.7,3.6-0.7,5.6v0c0,12.7,10.3,22.9,22.9,22.9h38.5
				c12.7,0,22.9-10.3,22.9-22.9v0c0-1.9-0.2-3.8-0.7-5.6C399.9,719.7,390.9,727.1,380.1,727.1z"/>
		</g>
	</g>
	<g>
		<path class="st1" d="M1246.8,526L1246.8,526c-2.7,0-4.9-2.2-4.9-4.9v-20.4c0-2.7,2.2-4.9,4.9-4.9l0,0c2.7,0,4.9,2.2,4.9,4.9v20.4
			C1251.7,523.8,1249.5,526,1246.8,526z"/>
		<path class="st1" d="M1233.7,535.5L1233.7,535.5c-0.8,2.5-3.6,3.9-6.1,3.1l-19.4-6.3c-2.5-0.8-3.9-3.6-3.1-6.1l0,0
			c0.8-2.5,3.6-3.9,6.1-3.1l19.4,6.3C1233.1,530.2,1234.5,533,1233.7,535.5z"/>
		<path class="st1" d="M1238.7,551L1238.7,551c2.2,1.6,2.6,4.6,1.1,6.8l-12,16.5c-1.6,2.2-4.6,2.6-6.8,1.1l0,0
			c-2.2-1.6-2.6-4.6-1.1-6.8l12-16.5C1233.5,549.9,1236.5,549.4,1238.7,551z"/>
		<path class="st1" d="M1255,551L1255,551c2.2-1.6,5.2-1.1,6.8,1.1l12,16.5c1.6,2.2,1.1,5.2-1.1,6.8l0,0c-2.2,1.6-5.2,1.1-6.8-1.1
			l-12-16.5C1252.3,555.6,1252.8,552.6,1255,551z"/>
		<path class="st1" d="M1260,535.5L1260,535.5c-0.8-2.5,0.6-5.3,3.1-6.1l19.4-6.3c2.5-0.8,5.3,0.6,6.1,3.1l0,0
			c0.8,2.5-0.6,5.3-3.1,6.1l-19.4,6.3C1263.6,539.5,1260.8,538.1,1260,535.5z"/>
	</g>
	<g>
		<path class="st1" d="M108.6,603L108.6,603c-2,0-3.7-1.7-3.7-3.7v-15.6c0-2,1.7-3.7,3.7-3.7h0c2,0,3.7,1.7,3.7,3.7v15.6
			C112.3,601.3,110.6,603,108.6,603z"/>
		<path class="st1" d="M98.5,610.3L98.5,610.3c-0.6,1.9-2.7,3-4.7,2.4L79,607.9c-1.9-0.6-3-2.7-2.4-4.7h0c0.6-1.9,2.7-3,4.7-2.4
			l14.9,4.8C98.1,606.3,99.2,608.4,98.5,610.3z"/>
		<path class="st1" d="M102.4,622.2L102.4,622.2c1.7,1.2,2,3.5,0.8,5.2L94,640c-1.2,1.7-3.5,2-5.2,0.8h0c-1.7-1.2-2-3.5-0.8-5.2
			l9.2-12.6C98.4,621.3,100.7,621,102.4,622.2z"/>
		<path class="st1" d="M114.8,622.2L114.8,622.2c1.7-1.2,4-0.8,5.2,0.8l9.2,12.6c1.2,1.7,0.8,4-0.8,5.2h0c-1.7,1.2-4,0.8-5.2-0.8
			l-9.2-12.6C112.8,625.7,113.2,623.4,114.8,622.2z"/>
		<path class="st1" d="M118.7,610.3L118.7,610.3c-0.6-1.9,0.4-4.1,2.4-4.7l14.9-4.8c1.9-0.6,4.1,0.4,4.7,2.4l0,0
			c0.6,1.9-0.4,4.1-2.4,4.7l-14.9,4.8C121.4,613.3,119.3,612.3,118.7,610.3z"/>
	</g>
	<g>
		<path class="st1" d="M944.7,387.1L944.7,387.1c-1.7,0-3.2-1.4-3.2-3.2v-13.3c0-1.7,1.4-3.2,3.2-3.2l0,0c1.7,0,3.2,1.4,3.2,3.2V384
			C947.9,385.7,946.5,387.1,944.7,387.1z"/>
		<path class="st1" d="M936.1,393.4L936.1,393.4c-0.5,1.7-2.3,2.6-4,2l-12.7-4.1c-1.7-0.5-2.6-2.3-2-4l0,0c0.5-1.7,2.3-2.6,4-2
			l12.7,4.1C935.8,389.9,936.7,391.7,936.1,393.4z"/>
		<path class="st1" d="M939.4,403.5L939.4,403.5c1.4,1,1.7,3,0.7,4.4l-7.8,10.8c-1,1.4-3,1.7-4.4,0.7v0c-1.4-1-1.7-3-0.7-4.4
			l7.8-10.8C936,402.8,938,402.5,939.4,403.5z"/>
		<path class="st1" d="M950.1,403.5L950.1,403.5c1.4-1,3.4-0.7,4.4,0.7l7.8,10.8c1,1.4,0.7,3.4-0.7,4.4v0c-1.4,1-3.4,0.7-4.4-0.7
			l-7.8-10.8C948.3,406.5,948.6,404.5,950.1,403.5z"/>
		<path class="st1" d="M953.3,393.4L953.3,393.4c-0.5-1.7,0.4-3.5,2-4l12.7-4.1c1.7-0.5,3.5,0.4,4,2l0,0c0.5,1.7-0.4,3.5-2,4
			l-12.7,4.1C955.7,396,953.9,395,953.3,393.4z"/>
	</g>
	<g>
		<path class="st1" d="M375.3,456.7L375.3,456.7c-2.2,0-4.1-1.8-4.1-4.1v-17.1c0-2.2,1.8-4.1,4.1-4.1h0c2.2,0,4.1,1.8,4.1,4.1v17.1
			C379.4,454.8,377.5,456.7,375.3,456.7z"/>
		<path class="st1" d="M364.2,464.7L364.2,464.7c-0.7,2.1-3,3.3-5.1,2.6l-16.3-5.3c-2.1-0.7-3.3-3-2.6-5.1l0,0
			c0.7-2.1,3-3.3,5.1-2.6l16.3,5.3C363.8,460.2,364.9,462.6,364.2,464.7z"/>
		<path class="st1" d="M368.5,477.7L368.5,477.7c1.8,1.3,2.2,3.9,0.9,5.7l-10.1,13.9c-1.3,1.8-3.9,2.2-5.7,0.9h0
			c-1.8-1.3-2.2-3.9-0.9-5.7l10.1-13.9C364.1,476.8,366.7,476.4,368.5,477.7z"/>
		<path class="st1" d="M382.1,477.7L382.1,477.7c1.8-1.3,4.4-0.9,5.7,0.9l10.1,13.9c1.3,1.8,0.9,4.4-0.9,5.7l0,0
			c-1.8,1.3-4.4,0.9-5.7-0.9l-10.1-13.9C379.9,481.6,380.3,479,382.1,477.7z"/>
		<path class="st1" d="M386.3,464.7L386.3,464.7c-0.7-2.1,0.5-4.4,2.6-5.1l16.3-5.3c2.1-0.7,4.4,0.5,5.1,2.6l0,0
			c0.7,2.1-0.5,4.4-2.6,5.1l-16.3,5.3C389.3,468,387,466.8,386.3,464.7z"/>
	</g>
	<g>
		<path class="st2" d="M1158.9,147.8L1158.9,147.8c-2.3,0-4.1-1.9-4.1-4.1v-17.4c0-2.3,1.9-4.1,4.1-4.1h0c2.3,0,4.1,1.9,4.1,4.1
			v17.4C1163,146,1161.1,147.8,1158.9,147.8z"/>
		<path class="st2" d="M1147.7,156L1147.7,156c-0.7,2.2-3,3.4-5.2,2.7l-16.5-5.4c-2.2-0.7-3.4-3-2.7-5.2v0c0.7-2.2,3-3.4,5.2-2.7
			l16.5,5.4C1147.2,151.5,1148.4,153.8,1147.7,156z"/>
		<path class="st2" d="M1151.9,169.1L1151.9,169.1c1.8,1.3,2.2,3.9,0.9,5.8l-10.2,14c-1.3,1.8-3.9,2.2-5.8,0.9l0,0
			c-1.8-1.3-2.2-3.9-0.9-5.8l10.2-14C1147.5,168.2,1150.1,167.8,1151.9,169.1z"/>
		<path class="st2" d="M1165.8,169.1L1165.8,169.1c1.8-1.3,4.4-0.9,5.8,0.9l10.2,14c1.3,1.8,0.9,4.4-0.9,5.8l0,0
			c-1.8,1.3-4.4,0.9-5.8-0.9l-10.2-14C1163.5,173.1,1163.9,170.5,1165.8,169.1z"/>
		<path class="st2" d="M1170.1,156L1170.1,156c-0.7-2.2,0.5-4.5,2.7-5.2l16.5-5.4c2.2-0.7,4.5,0.5,5.2,2.7v0
			c0.7,2.2-0.5,4.5-2.7,5.2l-16.5,5.4C1173.1,159.3,1170.8,158.1,1170.1,156z"/>
	</g>
	<g>
		<path class="st2" d="M158.1,161L158.1,161c-2.3,0-4.1-1.9-4.1-4.1v-17.4c0-2.3,1.9-4.1,4.1-4.1l0,0c2.3,0,4.1,1.9,4.1,4.1v17.4
			C162.3,159.2,160.4,161,158.1,161z"/>
		<path class="st2" d="M146.9,169.2L146.9,169.2c-0.7,2.2-3,3.4-5.2,2.7l-16.5-5.4c-2.2-0.7-3.4-3-2.7-5.2v0c0.7-2.2,3-3.4,5.2-2.7
			l16.5,5.4C146.4,164.7,147.6,167,146.9,169.2z"/>
		<path class="st2" d="M151.2,182.3L151.2,182.3c1.8,1.3,2.2,3.9,0.9,5.8l-10.2,14c-1.3,1.8-3.9,2.2-5.8,0.9h0
			c-1.8-1.3-2.2-3.9-0.9-5.8l10.2-14C146.8,181.4,149.4,181,151.2,182.3z"/>
		<path class="st2" d="M165,182.3L165,182.3c1.8-1.3,4.4-0.9,5.8,0.9l10.2,14c1.3,1.8,0.9,4.4-0.9,5.8l0,0c-1.8,1.3-4.4,0.9-5.8-0.9
			l-10.2-14C162.8,186.3,163.2,183.7,165,182.3z"/>
		<path class="st2" d="M169.3,169.2L169.3,169.2c-0.7-2.2,0.5-4.5,2.7-5.2l16.5-5.4c2.2-0.7,4.5,0.5,5.2,2.7v0
			c0.7,2.2-0.5,4.5-2.7,5.2l-16.5,5.4C172.4,172.5,170,171.3,169.3,169.2z"/>
	</g>
	<polygon class="st2" points="1040.4,507.8 1046.7,531.4 1070.3,537.6 1046.7,543.9 1040.4,567.5 1034.2,543.9 1010.6,537.6 
		1034.2,531.4 	"/>
	<polygon class="st2" points="145.2,449 149.3,464.6 164.8,468.6 149.3,472.7 145.2,488.3 141.1,472.7 125.6,468.6 141.1,464.6 	"/>
	<polygon class="st2" points="1297.3,644.5 1302.1,662.6 1320.2,667.4 1302.1,672.2 1297.3,690.3 1292.5,672.2 1274.4,667.4 
		1292.5,662.6 	"/>
	<polygon class="st2" points="942.1,172 946.7,189.5 964.2,194.2 946.7,198.8 942.1,216.3 937.4,198.8 919.9,194.2 937.4,189.5 	"/>
	<polygon class="st2" points="111.6,287.4 117.1,308 137.7,313.5 117.1,318.9 111.6,339.6 106.2,318.9 85.5,313.5 106.2,308 	"/>
	<polygon class="st2" points="445.7,164.5 450.3,182 467.9,186.6 450.3,191.3 445.7,208.8 441.1,191.3 423.5,186.6 441.1,182 	"/>
	<polygon class="st2" points="1321.8,130.8 1325.5,145.1 1339.8,148.9 1325.5,152.6 1321.8,166.9 1318,152.6 1303.7,148.9 
		1318,145.1 	"/>
	<circle class="st1" cx="1030.2" cy="208.9" r="7.8"/>
	<circle class="st2" cx="832.3" cy="122.6" r="9.8"/>
	<circle class="st1" cx="1276.1" cy="119.7" r="12.7"/>
	<circle class="st1" cx="487" cy="117.8" r="8.8"/>
	<circle class="st1" cx="174.7" cy="253.8" r="9.6"/>
	<circle class="st1" cx="75.5" cy="131.1" r="14.7"/>
	<circle class="st1" cx="450.3" cy="411.8" r="5.9"/>
	<circle class="st1" cx="271" cy="463.2" r="8.8"/>
	<circle class="st1" cx="101.2" cy="749" r="15.4"/>
	<circle class="st2" cx="347.4" cy="849.7" r="11.8"/>
	<circle class="st2" cx="85.8" cy="508.8" r="10.3"/>
	<circle class="st2" cx="1062.5" cy="829.1" r="6.9"/>
	<circle class="st2" cx="1133.1" cy="527.3" r="12.7"/>
	<circle class="st1" cx="1284" cy="744.8" r="10.8"/>
	<circle class="st1" cx="1324.1" cy="502.8" r="9.8"/>
	<circle class="st1" cx="1341" cy="325" r="9.8"/>
	<circle class="st1" cx="1048.8" cy="137.3" r="6.9"/>
	<circle class="st2" cx="333.6" cy="111.9" r="6.9"/>
</g>
</svg>
